<?xml version="1.0" encoding="utf-8"?>
<!-- Generator: Adobe Illustrator 24.0.1, SVG Export Plug-In . SVG Version: 6.00 Build 0)  -->
<svg version="1.1" id="Layer_2" xmlns="http://www.w3.org/2000/svg" xmlns:xlink="http://www.w3.org/1999/xlink" x="0px" y="0px"
	 viewBox="0 0 500 500" style="enable-background:new 0 0 500 500;" xml:space="preserve">
<style type="text/css">
	.st0{fill:#FEFEFE;}
</style>
<g>
	<path class="st0" d="M79.35,124.98c2.32-22.74,3.72-47.78,4.18-75.11l-29.87,0.77l0.35-7.79c0.19-4.16,0.33-8.73,0.42-13.69
		c13.29,0.09,28.77,0.14,46.45,0.14l17.33-0.07h16.84l9.12-0.07l-0.42,6.88c-0.19,3.69-0.31,6.74-0.38,9.15s-0.11,4.23-0.11,5.46
		c-10.01-0.51-18.26-0.77-24.76-0.77h-4.91c-0.71,8.27-1.25,15.9-1.62,22.91c-0.52,10.04-0.92,19.79-1.2,29.25
		c-0.28,9.46-0.42,17.11-0.42,22.95c-7.67-0.09-12.63-0.14-14.87-0.14C93.47,124.84,88.1,124.89,79.35,124.98z"/>
	<path class="st0" d="M207.24,27.34c7.49,0,14.69,1.01,21.62,3.02c6.93,2.01,12.99,5.23,18.18,9.65s9.08,9.51,11.65,15.27
		c2.57,5.76,3.86,12.38,3.86,19.86c0,7.86-1.42,15.08-4.25,21.65c-2.83,6.58-6.91,12.16-12.25,16.74
		c-5.33,4.59-11.7,7.94-19.09,10.07c-7.39,2.13-15.09,3.19-23.09,3.19c-7.91,0-15.49-1.04-22.74-3.12
		c-7.25-2.08-13.56-5.45-18.92-10.11c-5.36-4.66-9.16-9.84-11.41-15.55c-2.25-5.71-3.37-12.05-3.37-19.02
		c0-10.25,2.37-19.24,7.12-26.99c4.75-7.74,11.79-13.79,21.13-18.14C185.03,29.52,195.54,27.34,207.24,27.34z M205.98,48.47
		c-5.38,0-10.25,1.32-14.6,3.97c-4.35,2.64-7.7,6.32-10.04,11.02c-2.34,4.7-3.51,9.75-3.51,15.13c0,4.96,1.06,9.5,3.19,13.62
		c2.13,4.12,5.37,7.34,9.72,9.65c4.35,2.32,8.96,3.47,13.83,3.47c5.19,0,9.96-1.3,14.28-3.9c4.33-2.6,7.63-6.25,9.9-10.95
		c2.27-4.7,3.4-9.63,3.4-14.78c0-5.01-1.05-9.63-3.16-13.86c-2.11-4.23-5.19-7.52-9.27-9.86C215.67,49.64,211.08,48.47,205.98,48.47
		z"/>
	<path class="st0" d="M278.02,29.16c7.3,0.09,12.44,0.14,15.43,0.14c3.74,0,8.72-0.05,14.94-0.14L306.3,59
		c-0.42,5.62-0.73,10.88-0.94,15.79c-0.21,4.91-0.31,8.31-0.31,10.18c0,3.56,0.26,6.53,0.77,8.91c0.51,2.39,1.45,4.41,2.8,6.07
		c1.36,1.66,3.24,2.91,5.65,3.76c2.41,0.84,4.92,1.26,7.54,1.26c2.24,0,4.35-0.31,6.31-0.92c1.54-0.5,2.92-1.2,4.14-2.09
		c1.07-0.84,2.01-1.81,2.81-2.93c0.98-1.34,1.85-3.01,2.59-5.01c0.75-1.89,1.31-4.35,1.68-7.35c0.42-3.06,0.98-10.03,1.69-20.9
		c0.61-9.25,1.08-17.72,1.4-25.41c0.28-7.47,0.54-11.2,0.77-11.2c7.07,0,12.63,0,16.7,0h14.25L370.75,79
		c-0.05,0.94-0.07,1.71-0.07,2.32c-0.19,9.73-0.78,16.6-1.79,20.6s-2.68,7.48-5.02,10.42c-2.34,2.95-5.76,5.6-10.25,7.97
		c-4.49,2.36-9.6,4.04-15.31,5.02c-5.71,0.98-11.49,1.47-17.34,1.47c-5.24,0-10.3-0.38-15.17-1.12c-4.49-0.75-8.54-1.84-12.15-3.26
		c-3.6-1.43-6.74-3.1-9.41-5.02c-2.44-1.78-4.31-3.59-5.62-5.44c-1.31-1.85-2.34-4.06-3.09-6.63c-0.84-2.9-1.26-6.01-1.26-9.34
		c0-1.12,0.05-2.82,0.14-5.09c0.09-2.27,0.31-5.53,0.64-9.79l0.92-11.23c0.23-2.95,0.49-7.28,0.78-12.99L278.02,29.16z"/>
	<path class="st0" d="M384.69,123.5c-0.61-9.97-1.31-17.95-2.11-23.94c5.25,2.34,9.93,3.97,14.03,4.88c4.1,0.91,7.7,1.37,10.8,1.37
		c4.08,0,7.32-0.6,9.74-1.79s3.62-2.96,3.62-5.3c0-0.8-0.12-1.56-0.35-2.28c-0.23-0.72-0.68-1.54-1.34-2.46
		c-0.66-0.91-1.6-1.91-2.81-2.98l-13.22-11.51c-3.1-2.62-5.25-4.52-6.47-5.69c-2.49-2.39-4.42-4.61-5.8-6.67
		c-1.38-2.06-2.39-4.15-3.03-6.28c-0.63-2.13-0.95-4.39-0.95-6.77c0-2.85,0.5-5.65,1.51-8.39c1.01-2.74,2.51-5.3,4.53-7.69
		c2.01-2.39,4.68-4.45,8-6.18c3.32-1.73,6.88-2.91,10.67-3.54c3.79-0.63,7.7-0.95,11.72-0.95c7.91,0,16.52,0.91,25.83,2.74
		c0.14,3.23,0.3,6.19,0.49,8.88c0.19,2.69,0.63,7.41,1.33,14.14c-4.31-1.73-8.24-2.94-11.79-3.61c-3.56-0.68-6.62-1.02-9.2-1.02
		c-3.65,0-6.68,0.68-9.09,2.04c-2.41,1.36-3.61,3.04-3.61,5.05c0,0.94,0.19,1.85,0.56,2.74c0.37,0.89,1.08,1.93,2.11,3.12
		c1.03,1.19,2.39,2.5,4.07,3.93c1.68,1.43,4.33,3.54,7.93,6.35l5.05,4c1.5,1.22,3.11,2.69,4.84,4.42c1.73,1.73,3.23,3.44,4.49,5.12
		c1.26,1.68,2.23,3.23,2.91,4.63c0.68,1.4,1.18,2.82,1.51,4.25c0.33,1.43,0.49,2.96,0.49,4.6c0,4.21-1.01,8.22-3.02,12.04
		c-2.01,3.81-4.87,6.95-8.56,9.41c-3.7,2.46-7.76,4.18-12.18,5.16s-9.09,1.47-14,1.47C405.82,126.8,396.25,125.7,384.69,123.5z"/>
	<path class="st0" d="M161.02,297.49l1.25-15.1l2.72-52.47l0.77-28.24c6.51,0.09,11.41,0.14,14.69,0.14c4.26,0,8.97-0.05,14.13-0.14
		l-1.6,21.55l-2.58,53.07l-0.56,21.2c-5.01-0.05-9.53-0.07-13.56-0.07L161.02,297.49z"/>
	<path class="st0" d="M275.16,276.29c-0.61,2.81-1.78,9.59-3.51,20.36c-5.43,1.08-9.99,1.79-13.69,2.14
		c-3.7,0.35-7.44,0.53-11.23,0.53c-5.57,0-10.69-0.39-15.37-1.16c-4.68-0.77-8.72-2.14-12.11-4.1c-3.39-1.96-6.24-4.41-8.53-7.33
		c-2.29-2.92-4.04-6.39-5.23-10.41s-1.79-8.16-1.79-12.41c0-5.98,1.19-11.84,3.58-17.57c2.39-5.73,5.46-10.2,9.23-13.43
		c3.77-3.22,8.11-5.52,13.02-6.87c4.91-1.36,9.94-2.03,15.09-2.03c5.33,0,10.42,0.62,15.27,1.86c4.84,1.24,8.95,3.4,12.32,6.49
		c3.37,3.09,5.77,6.58,7.19,10.46c1.43,3.88,2.14,8.07,2.14,12.56c0,2.67-0.3,5.64-0.91,8.91l-49.21,0.07
		c-0.05,0.75-0.07,1.42-0.07,2.03c0,5.03,1.8,8.74,5.4,11.11c3.6,2.38,8,3.56,13.2,3.56c3.09,0,6.61-0.36,10.56-1.09
		C264.47,279.25,269.35,278.02,275.16,276.29z M231.99,253.61h23.16c0.05-0.8,0.07-1.47,0.07-2.04c0-2.43-0.43-4.51-1.3-6.25
		c-0.87-1.73-2.11-2.99-3.72-3.79c-1.61-0.8-3.43-1.19-5.44-1.19c-1.4,0-2.76,0.22-4.07,0.67c-1.31,0.45-2.49,1.1-3.54,1.97
		c-1.05,0.87-1.93,1.86-2.63,2.98s-1.22,2.21-1.54,3.26C232.64,250.28,232.31,251.74,231.99,253.61z"/>
	<path class="st0" d="M290.18,296.15c-0.19-2.06-0.38-4.22-0.56-6.49c-0.19-2.27-0.49-5.39-0.91-9.37l-0.56-5.05
		c4.53,1.78,8.43,3.1,11.7,3.97c3.27,0.87,6.28,1.3,9.03,1.3c2.29,0,4.14-0.21,5.57-0.63c1.42-0.42,2.46-1.03,3.12-1.83
		c0.65-0.8,0.98-1.61,0.98-2.46c0-0.75-0.25-1.49-0.74-2.21c-0.49-0.72-1.6-1.72-3.33-2.98c-3.83-2.81-7.2-5.36-10.11-7.65
		c-2.92-2.29-5.11-4.33-6.58-6.11c-1.47-1.78-2.59-3.7-3.36-5.76c-0.77-2.06-1.16-4.19-1.16-6.39c0-3.88,1.11-7.51,3.33-10.88
		c2.22-3.37,5.5-5.81,9.83-7.34c4.33-1.52,9.6-2.28,15.83-2.28c6.5,0,14.81,0.84,24.92,2.53l1.12,19.65
		c-5.66-2.25-11.11-3.37-16.36-3.37c-3.7,0-6.38,0.38-8.04,1.14c-1.66,0.76-2.49,1.92-2.49,3.49c0,0.52,0.09,1.01,0.28,1.47
		c0.19,0.47,0.53,0.96,1.02,1.47c0.49,0.52,1.1,1.04,1.83,1.58c0.73,0.54,2.49,1.79,5.3,3.76c2.81,1.97,5.01,3.58,6.6,4.84
		c2.62,2.06,4.62,3.97,6,5.72c1.38,1.75,2.43,3.63,3.16,5.62c0.72,1.99,1.09,4.08,1.09,6.28c0,3.32-0.81,6.38-2.42,9.16
		c-1.61,2.78-4.05,5.11-7.3,6.98c-3.25,1.87-6.77,3.17-10.56,3.9c-3.79,0.72-7.7,1.09-11.72,1.09c-2.71,0-6.12-0.23-10.21-0.7
		C300.37,298.14,295.6,297.32,290.18,296.15z"/>
	<path class="st0" d="M7.61,467.82c-0.42-8-0.96-15.82-1.61-23.44c5.29,2.01,9.56,3.37,12.81,4.07c3.25,0.7,6.28,1.05,9.09,1.05
		c3.13,0,5.94-0.56,8.42-1.68c1.87-0.89,3.35-2.04,4.42-3.44c1.45-1.97,2.43-4.26,2.95-6.88c0.89-4.73,1.57-12.95,2.05-24.67
		c0.48-11.72,0.71-21.87,0.71-30.43v-8.21c7.48,0.09,12.46,0.14,14.94,0.14c3.09,0,8.37-0.05,15.85-0.14l-2.12,31.03
		c-0.52,9.17-0.9,18.93-1.13,29.27c-0.19,7.96-0.59,13.41-1.19,16.36c-0.56,2.67-1.36,4.91-2.39,6.74c-0.94,1.73-2.1,3.28-3.51,4.63
		c-1.73,1.64-3.81,3.07-6.24,4.28c-3.28,1.68-6.76,2.95-10.45,3.79c-4.07,0.94-8.42,1.4-13.05,1.4
		C28.59,471.68,18.75,470.39,7.61,467.82z"/>
	<path class="st0" d="M148.35,372.35c7.49,0,14.69,1.01,21.62,3.02c6.93,2.01,12.99,5.23,18.18,9.65
		c5.19,4.42,9.08,9.51,11.65,15.27c2.57,5.76,3.86,12.38,3.86,19.86c0,7.86-1.42,15.08-4.25,21.65
		c-2.83,6.58-6.91,12.16-12.25,16.74c-5.33,4.59-11.7,7.94-19.09,10.07c-7.39,2.13-15.09,3.19-23.09,3.19
		c-7.91,0-15.49-1.04-22.74-3.12c-7.25-2.08-13.56-5.45-18.92-10.11c-5.36-4.66-9.16-9.84-11.41-15.55
		c-2.25-5.71-3.37-12.05-3.37-19.02c0-10.25,2.37-19.24,7.12-26.99c4.75-7.74,11.79-13.79,21.13-18.14
		C126.14,374.53,136.65,372.35,148.35,372.35z M147.09,393.48c-5.38,0-10.25,1.32-14.6,3.97c-4.35,2.64-7.7,6.32-10.04,11.02
		c-2.34,4.7-3.51,9.75-3.51,15.13c0,4.96,1.06,9.5,3.19,13.62c2.13,4.12,5.37,7.34,9.72,9.65c4.35,2.32,8.96,3.47,13.83,3.47
		c5.19,0,9.96-1.3,14.28-3.9c4.33-2.6,7.63-6.25,9.9-10.95c2.27-4.7,3.4-9.63,3.4-14.78c0-5.01-1.05-9.63-3.16-13.86
		c-2.11-4.23-5.19-7.52-9.27-9.86C156.77,394.65,152.19,393.48,147.09,393.48z"/>
	<path class="st0" d="M219.12,374.18c7.3,0.09,12.44,0.14,15.43,0.14c3.74,0,8.72-0.05,14.94-0.14l-2.09,29.83
		c-0.42,5.62-0.73,10.88-0.94,15.79c-0.21,4.91-0.31,8.31-0.31,10.18c0,3.56,0.26,6.53,0.77,8.91c0.51,2.39,1.45,4.41,2.81,6.07
		c1.36,1.66,3.24,2.91,5.65,3.76c2.41,0.84,4.92,1.26,7.54,1.26c2.24,0,4.35-0.31,6.31-0.92c1.54-0.5,2.92-1.2,4.14-2.09
		c1.07-0.84,2.01-1.81,2.81-2.93c0.98-1.34,1.85-3.01,2.59-5.01c0.75-1.89,1.31-4.34,1.68-7.36c0.42-3.06,0.98-10.03,1.69-20.9
		c0.61-9.25,1.08-17.72,1.4-25.41c0.28-7.47,0.54-11.2,0.77-11.2c7.07,0,12.63,0,16.7,0h14.25l-3.41,49.84
		c-0.05,0.94-0.07,1.71-0.07,2.32c-0.19,9.73-0.78,16.6-1.79,20.6c-1.01,4-2.68,7.48-5.02,10.42c-2.34,2.95-5.76,5.6-10.25,7.97
		c-4.49,2.36-9.6,4.04-15.31,5.02c-5.71,0.98-11.49,1.47-17.34,1.47c-5.24,0-10.3-0.38-15.17-1.12c-4.49-0.75-8.54-1.84-12.15-3.26
		c-3.6-1.43-6.74-3.1-9.41-5.02c-2.44-1.78-4.31-3.59-5.62-5.44c-1.31-1.85-2.34-4.06-3.09-6.63c-0.84-2.9-1.26-6.01-1.26-9.34
		c0-1.12,0.05-2.82,0.14-5.09c0.09-2.27,0.31-5.53,0.64-9.79l0.92-11.23c0.23-2.95,0.49-7.28,0.78-12.99L219.12,374.18z"/>
	<path class="st0" d="M326.5,469.99c0.89-8.24,1.6-15.65,2.11-22.25c0.52-6.6,0.96-14.25,1.34-22.95s0.66-17.89,0.84-27.55
		c0.19-9.66,0.28-17.35,0.28-23.06c5.85,0.14,10.57,0.21,14.18,0.21c3.74,0,8.3-0.11,13.69-0.32s10.62-0.32,15.72-0.32
		c5.99,0,11.32,0.23,16,0.7c3.51,0.33,6.7,1.01,9.58,2.04c2.88,1.03,5.3,2.28,7.26,3.76c1.97,1.47,3.6,3.12,4.91,4.95
		s2.33,3.97,3.05,6.42c0.72,2.46,1.09,5.09,1.09,7.9c0,3.14-0.4,6.07-1.19,8.81c-0.8,2.74-2.05,5.31-3.75,7.72
		c-1.71,2.41-3.86,4.49-6.46,6.25c-2.6,1.75-6.24,3.54-10.92,5.37l3.65,8.91c1.03,2.48,2.13,5.01,3.3,7.58l9.41,20.57
		c0.42,0.89,1.17,2.64,2.25,5.26c-7.72-0.09-12.91-0.14-15.57-0.14c-3.37,0-8.89,0.05-16.56,0.14c-0.75-2.43-2.11-6.95-4.08-13.55
		c-0.8-2.76-1.48-4.89-2.04-6.39c-1.13-3.32-2.79-7.98-4.99-13.97l-7.24-19.86c2.53,0.47,5.01,0.7,7.44,0.7
		c3.42,0,6.52-0.51,9.3-1.54c2.78-1.03,4.89-2.62,6.32-4.77c1.43-2.15,2.14-4.42,2.14-6.81c0-2.01-0.54-3.78-1.61-5.3
		c-1.08-1.52-2.77-2.66-5.09-3.4c-2.32-0.75-5.89-1.12-10.71-1.12c-1.64,0-3.33,0.04-5.09,0.11s-3.8,0.13-6.14,0.18
		c-0.6,9.59-1.13,21.29-1.59,35.1c-0.46,13.8-0.76,27.35-0.9,40.64c-7.82-0.09-12.91-0.14-15.25-0.14
		C338.47,469.85,333.58,469.9,326.5,469.99z"/>
	<path class="st0" d="M426.53,468.52c-0.61-9.97-1.31-17.95-2.11-23.94c5.25,2.34,9.93,3.97,14.03,4.88c4.1,0.91,7.7,1.37,10.8,1.37
		c4.08,0,7.32-0.6,9.74-1.79c2.41-1.19,3.62-2.96,3.62-5.3c0-0.8-0.12-1.56-0.35-2.28c-0.23-0.73-0.68-1.54-1.34-2.46
		c-0.66-0.91-1.6-1.91-2.81-2.98l-13.22-11.51c-3.1-2.62-5.25-4.52-6.47-5.69c-2.49-2.39-4.42-4.61-5.8-6.67
		c-1.38-2.06-2.39-4.15-3.03-6.28c-0.63-2.13-0.95-4.39-0.95-6.77c0-2.85,0.5-5.65,1.51-8.39c1.01-2.74,2.51-5.3,4.53-7.69
		c2.01-2.39,4.68-4.45,8-6.18c3.32-1.73,6.88-2.91,10.67-3.54s7.7-0.95,11.72-0.95c7.91,0,16.52,0.91,25.83,2.74
		c0.14,3.23,0.3,6.19,0.49,8.88c0.19,2.69,0.63,7.41,1.33,14.14c-4.31-1.73-8.24-2.94-11.79-3.61c-3.56-0.68-6.62-1.02-9.2-1.02
		c-3.65,0-6.68,0.68-9.09,2.04c-2.41,1.36-3.61,3.04-3.61,5.05c0,0.94,0.19,1.85,0.56,2.74c0.37,0.89,1.08,1.93,2.11,3.12
		c1.03,1.19,2.39,2.5,4.07,3.93c1.68,1.43,4.33,3.54,7.93,6.35l5.05,4c1.5,1.22,3.11,2.69,4.84,4.42c1.73,1.73,3.23,3.44,4.49,5.12
		c1.26,1.68,2.23,3.23,2.91,4.63c0.68,1.4,1.18,2.82,1.51,4.25c0.33,1.43,0.49,2.96,0.49,4.6c0,4.21-1.01,8.22-3.02,12.04
		c-2.01,3.81-4.87,6.95-8.56,9.41c-3.7,2.46-7.76,4.18-12.18,5.16c-4.42,0.98-9.09,1.47-14,1.47
		C447.66,471.82,438.08,470.72,426.53,468.52z"/>
</g>
</svg>
