<?xml version="1.0" encoding="utf-8"?>
<!-- Generator: Adobe Illustrator 24.0.1, SVG Export Plug-In . SVG Version: 6.00 Build 0)  -->
<svg version="1.1" id="Layer_1" xmlns="http://www.w3.org/2000/svg" xmlns:xlink="http://www.w3.org/1999/xlink" x="0px" y="0px"
	 viewBox="0 0 1133.9 151.5" style="enable-background:new 0 0 1133.9 151.5;" xml:space="preserve">
<style type="text/css">
	.st0{fill:#FFFFFF;}
</style>
<g>
	<path class="st0" d="M43.5,126.3c2.2-21.7,3.6-45.7,4-71.8l-28.6,0.7l0.3-7.4c0.2-4,0.3-8.3,0.4-13.1c12.7,0.1,27.5,0.1,44.4,0.1
		l16.6-0.1h16.1l8.7-0.1l-0.4,6.6c-0.2,3.5-0.3,6.4-0.4,8.7c-0.1,2.3-0.1,4-0.1,5.2c-9.6-0.5-17.5-0.7-23.7-0.7h-4.7
		c-0.7,7.9-1.2,15.2-1.5,21.9c-0.5,9.6-0.9,18.9-1.1,28s-0.4,16.4-0.4,21.9c-7.3-0.1-12.1-0.1-14.2-0.1
		C57,126.2,51.9,126.2,43.5,126.3z"/>
	<path class="st0" d="M165.8,33c7.2,0,14,1,20.7,2.9s12.4,5,17.4,9.2s8.7,9.1,11.1,14.6c2.5,5.5,3.7,11.8,3.7,19
		c0,7.5-1.4,14.4-4.1,20.7c-2.7,6.3-6.6,11.6-11.7,16c-5.1,4.4-11.2,7.6-18.3,9.6s-14.4,3.1-22.1,3.1c-7.6,0-14.8-1-21.7-3
		c-6.9-2-13-5.2-18.1-9.7s-8.8-9.4-10.9-14.9c-2.2-5.5-3.2-11.5-3.2-18.2c0-9.8,2.3-18.4,6.8-25.8c4.5-7.4,11.3-13.2,20.2-17.3
		C144.6,35,154.6,33,165.8,33z M164.6,53.2c-5.1,0-9.8,1.3-14,3.8c-4.2,2.5-7.4,6-9.6,10.5c-2.2,4.5-3.4,9.3-3.4,14.5
		c0,4.7,1,9.1,3.1,13c2,3.9,5.1,7,9.3,9.2c4.2,2.2,8.6,3.3,13.2,3.3c5,0,9.5-1.2,13.7-3.7c4.1-2.5,7.3-6,9.5-10.5
		c2.2-4.5,3.3-9.2,3.3-14.1c0-4.8-1-9.2-3-13.3s-5-7.2-8.9-9.4C173.9,54.3,169.5,53.2,164.6,53.2z"/>
	<path class="st0" d="M233.5,34.7c7,0.1,11.9,0.1,14.8,0.1c3.6,0,8.3,0,14.3-0.1l-2,28.5c-0.4,5.4-0.7,10.4-0.9,15.1
		c-0.2,4.7-0.3,7.9-0.3,9.7c0,3.4,0.2,6.2,0.7,8.5c0.5,2.3,1.4,4.2,2.7,5.8c1.3,1.6,3.1,2.8,5.4,3.6c2.3,0.8,4.7,1.2,7.2,1.2
		c2.1,0,4.2-0.3,6-0.9c1.5-0.5,2.8-1.1,4-2c1-0.8,1.9-1.7,2.7-2.8c0.9-1.3,1.8-2.9,2.5-4.8c0.7-1.8,1.3-4.2,1.6-7
		c0.4-2.9,0.9-9.6,1.6-20c0.6-8.8,1-16.9,1.3-24.3c0.3-7.1,0.5-10.7,0.7-10.7c6.8,0,12.1,0,16,0h13.6l-3.3,47.7
		c0,0.9-0.1,1.6-0.1,2.2c-0.2,9.3-0.7,15.9-1.7,19.7c-1,3.8-2.6,7.2-4.8,10c-2.2,2.8-5.5,5.4-9.8,7.6c-4.3,2.3-9.2,3.9-14.6,4.8
		c-5.5,0.9-11,1.4-16.6,1.4c-5,0-9.8-0.4-14.5-1.1c-4.3-0.7-8.2-1.8-11.6-3.1c-3.4-1.4-6.4-3-9-4.8c-2.3-1.7-4.1-3.4-5.4-5.2
		c-1.3-1.8-2.2-3.9-3-6.3c-0.8-2.8-1.2-5.7-1.2-8.9c0-1.1,0-2.7,0.1-4.9c0.1-2.2,0.3-5.3,0.6-9.4l0.9-10.7c0.2-2.8,0.5-7,0.7-12.4
		L233.5,34.7z"/>
	<path class="st0" d="M335.5,124.9c-0.6-9.5-1.3-17.2-2-22.9c5,2.2,9.5,3.8,13.4,4.7c3.9,0.9,7.4,1.3,10.3,1.3c3.9,0,7-0.6,9.3-1.7
		s3.5-2.8,3.5-5.1c0-0.8-0.1-1.5-0.3-2.2c-0.2-0.7-0.7-1.5-1.3-2.4c-0.6-0.9-1.5-1.8-2.7-2.8l-12.6-11c-3-2.5-5-4.3-6.2-5.4
		c-2.4-2.3-4.2-4.4-5.5-6.4c-1.3-2-2.3-4-2.9-6c-0.6-2-0.9-4.2-0.9-6.5c0-2.7,0.5-5.4,1.4-8c1-2.6,2.4-5.1,4.3-7.4
		c1.9-2.3,4.5-4.3,7.6-5.9c3.2-1.7,6.6-2.8,10.2-3.4s7.4-0.9,11.2-0.9c7.6,0,15.8,0.9,24.7,2.6c0.1,3.1,0.3,5.9,0.5,8.5
		s0.6,7.1,1.3,13.5c-4.1-1.7-7.9-2.8-11.3-3.5c-3.4-0.7-6.3-1-8.8-1c-3.5,0-6.4,0.7-8.7,2c-2.3,1.3-3.5,2.9-3.5,4.8
		c0,0.9,0.2,1.8,0.5,2.6c0.4,0.9,1,1.8,2,3c1,1.1,2.3,2.4,3.9,3.8c1.6,1.4,4.1,3.4,7.6,6.1l4.8,3.8c1.4,1.2,3,2.6,4.6,4.2
		c1.7,1.7,3.1,3.3,4.3,4.9c1.2,1.6,2.1,3.1,2.8,4.4c0.7,1.3,1.1,2.7,1.4,4.1c0.3,1.4,0.5,2.8,0.5,4.4c0,4-1,7.9-2.9,11.5
		c-1.9,3.6-4.7,6.6-8.2,9c-3.5,2.4-7.4,4-11.6,4.9c-4.2,0.9-8.7,1.4-13.4,1.4C355.7,128.1,346.5,127,335.5,124.9z"/>
	<path class="st0" d="M446.7,124.9l1.2-14.4l2.6-50.2l0.7-27c6.2,0.1,10.9,0.1,14,0.1c4.1,0,8.6,0,13.5-0.1l-1.5,20.6l-2.5,50.7
		l-0.5,20.3c-4.8,0-9.1-0.1-13-0.1L446.7,124.9z"/>
	<path class="st0" d="M555.8,104.6c-0.6,2.7-1.7,9.2-3.4,19.5c-5.2,1-9.6,1.7-13.1,2s-7.1,0.5-10.7,0.5c-5.3,0-10.2-0.4-14.7-1.1
		c-4.5-0.7-8.3-2-11.6-3.9c-3.2-1.9-6-4.2-8.2-7c-2.2-2.8-3.9-6.1-5-10s-1.7-7.8-1.7-11.9c0-5.7,1.1-11.3,3.4-16.8
		c2.3-5.5,5.2-9.8,8.8-12.8c3.6-3.1,7.8-5.3,12.4-6.6c4.7-1.3,9.5-1.9,14.4-1.9c5.1,0,10,0.6,14.6,1.8c4.6,1.2,8.6,3.3,11.8,6.2
		c3.2,3,5.5,6.3,6.9,10c1.4,3.7,2,7.7,2,12c0,2.6-0.3,5.4-0.9,8.5L514,93.2c0,0.7-0.1,1.4-0.1,1.9c0,4.8,1.7,8.4,5.2,10.6
		c3.4,2.3,7.6,3.4,12.6,3.4c3,0,6.3-0.3,10.1-1C545.6,107.5,550.3,106.3,555.8,104.6z M514.5,82.9h22.1c0-0.8,0.1-1.4,0.1-2
		c0-2.3-0.4-4.3-1.2-6c-0.8-1.7-2-2.9-3.6-3.6c-1.5-0.8-3.3-1.1-5.2-1.1c-1.3,0-2.6,0.2-3.9,0.6s-2.4,1.1-3.4,1.9
		c-1,0.8-1.8,1.8-2.5,2.8s-1.2,2.1-1.5,3.1C515.2,79.8,514.9,81.1,514.5,82.9z"/>
	<path class="st0" d="M570.2,123.6c-0.2-2-0.4-4-0.5-6.2c-0.2-2.2-0.5-5.2-0.9-9l-0.5-4.8c4.3,1.7,8.1,3,11.2,3.8
		c3.1,0.8,6,1.2,8.6,1.2c2.2,0,4-0.2,5.3-0.6c1.4-0.4,2.4-1,3-1.7c0.6-0.8,0.9-1.5,0.9-2.4c0-0.7-0.2-1.4-0.7-2.1
		c-0.5-0.7-1.5-1.6-3.2-2.8c-3.7-2.7-6.9-5.1-9.7-7.3c-2.8-2.2-4.9-4.1-6.3-5.8c-1.4-1.7-2.5-3.5-3.2-5.5c-0.7-2-1.1-4-1.1-6.1
		c0-3.7,1.1-7.2,3.2-10.4c2.1-3.2,5.3-5.6,9.4-7c4.1-1.5,9.2-2.2,15.1-2.2c6.2,0,14.2,0.8,23.8,2.4l1.1,18.8
		c-5.4-2.2-10.6-3.2-15.6-3.2c-3.5,0-6.1,0.4-7.7,1.1c-1.6,0.7-2.4,1.8-2.4,3.3c0,0.5,0.1,1,0.3,1.4c0.2,0.4,0.5,0.9,1,1.4
		c0.5,0.5,1.1,1,1.7,1.5c0.7,0.5,2.4,1.7,5.1,3.6c2.7,1.9,4.8,3.4,6.3,4.6c2.5,2,4.4,3.8,5.7,5.5c1.3,1.7,2.3,3.5,3,5.4
		c0.7,1.9,1,3.9,1,6c0,3.2-0.8,6.1-2.3,8.8c-1.5,2.7-3.9,4.9-7,6.7c-3.1,1.8-6.5,3-10.1,3.7c-3.6,0.7-7.4,1-11.2,1
		c-2.6,0-5.9-0.2-9.8-0.7C579.9,125.5,575.4,124.7,570.2,123.6z"/>
	<path class="st0" d="M650.9,117.6c-0.4-7.6-0.9-15.1-1.5-22.4c5.1,1.9,9.1,3.2,12.2,3.9c3.1,0.7,6,1,8.7,1c3,0,5.7-0.5,8.1-1.6
		c1.8-0.9,3.2-2,4.2-3.3c1.4-1.9,2.3-4.1,2.8-6.6c0.9-4.5,1.5-12.4,2-23.6s0.7-20.9,0.7-29.1V28c7.2,0.1,11.9,0.1,14.3,0.1
		c3,0,8,0,15.2-0.1l-2,29.7c-0.5,8.8-0.9,18.1-1.1,28c-0.2,7.6-0.6,12.8-1.1,15.6c-0.5,2.6-1.3,4.7-2.3,6.4c-0.9,1.7-2,3.1-3.4,4.4
		c-1.7,1.6-3.6,2.9-6,4.1c-3.1,1.6-6.5,2.8-10,3.6c-3.9,0.9-8.1,1.3-12.5,1.3C671,121.2,661.6,120,650.9,117.6z"/>
	<path class="st0" d="M785.5,26.3c7.2,0,14,1,20.7,2.9c6.6,1.9,12.4,5,17.4,9.2c5,4.2,8.7,9.1,11.1,14.6c2.5,5.5,3.7,11.8,3.7,19
		c0,7.5-1.4,14.4-4.1,20.7c-2.7,6.3-6.6,11.6-11.7,16c-5.1,4.4-11.2,7.6-18.3,9.6s-14.4,3.1-22.1,3.1c-7.6,0-14.8-1-21.7-3
		c-6.9-2-13-5.2-18.1-9.7c-5.1-4.5-8.8-9.4-10.9-14.9c-2.2-5.5-3.2-11.5-3.2-18.2c0-9.8,2.3-18.4,6.8-25.8
		c4.5-7.4,11.3-13.2,20.2-17.3C764.2,28.4,774.3,26.3,785.5,26.3z M784.3,46.5c-5.1,0-9.8,1.3-14,3.8c-4.2,2.5-7.4,6-9.6,10.5
		c-2.2,4.5-3.4,9.3-3.4,14.5c0,4.7,1,9.1,3.1,13s5.1,7,9.3,9.2c4.2,2.2,8.6,3.3,13.2,3.3c5,0,9.5-1.2,13.7-3.7
		c4.1-2.5,7.3-6,9.5-10.5c2.2-4.5,3.3-9.2,3.3-14.1c0-4.8-1-9.2-3-13.3c-2-4-5-7.2-8.9-9.4C793.5,47.6,789.1,46.5,784.3,46.5z"/>
	<path class="st0" d="M853.1,28c7,0.1,11.9,0.1,14.8,0.1c3.6,0,8.3,0,14.3-0.1l-2,28.5c-0.4,5.4-0.7,10.4-0.9,15.1s-0.3,7.9-0.3,9.7
		c0,3.4,0.2,6.2,0.7,8.5c0.5,2.3,1.4,4.2,2.7,5.8s3.1,2.8,5.4,3.6c2.3,0.8,4.7,1.2,7.2,1.2c2.1,0,4.2-0.3,6-0.9c1.5-0.5,2.8-1.1,4-2
		c1-0.8,1.9-1.7,2.7-2.8c0.9-1.3,1.8-2.9,2.5-4.8c0.7-1.8,1.3-4.1,1.6-7c0.4-2.9,0.9-9.6,1.6-20c0.6-8.8,1-16.9,1.3-24.3
		c0.3-7.1,0.5-10.7,0.7-10.7c6.8,0,12.1,0,16,0h13.6l-3.3,47.7c0,0.9-0.1,1.6-0.1,2.2c-0.2,9.3-0.7,15.9-1.7,19.7
		c-1,3.8-2.6,7.2-4.8,10c-2.2,2.8-5.5,5.4-9.8,7.6c-4.3,2.3-9.2,3.9-14.6,4.8c-5.5,0.9-11,1.4-16.6,1.4c-5,0-9.8-0.4-14.5-1.1
		c-4.3-0.7-8.2-1.8-11.6-3.1c-3.4-1.4-6.4-3-9-4.8c-2.3-1.7-4.1-3.4-5.4-5.2c-1.3-1.8-2.2-3.9-3-6.3c-0.8-2.8-1.2-5.7-1.2-8.9
		c0-1.1,0-2.7,0.1-4.9c0.1-2.2,0.3-5.3,0.6-9.4l0.9-10.7c0.2-2.8,0.5-7,0.7-12.4L853.1,28z"/>
	<path class="st0" d="M955.8,119.6c0.9-7.9,1.5-15,2-21.3c0.5-6.3,0.9-13.6,1.3-21.9c0.4-8.3,0.6-17.1,0.8-26.3
		c0.2-9.2,0.3-16.6,0.3-22c5.6,0.1,10.1,0.2,13.6,0.2c3.6,0,7.9-0.1,13.1-0.3s10.2-0.3,15-0.3c5.7,0,10.8,0.2,15.3,0.7
		c3.4,0.3,6.4,1,9.2,2c2.8,1,5.1,2.2,6.9,3.6c1.9,1.4,3.4,3,4.7,4.7s2.2,3.8,2.9,6.1c0.7,2.4,1,4.9,1,7.6c0,3-0.4,5.8-1.1,8.4
		c-0.8,2.6-2,5.1-3.6,7.4c-1.6,2.3-3.7,4.3-6.2,6c-2.5,1.7-6,3.4-10.4,5.1l3.5,8.5c1,2.4,2,4.8,3.2,7.2l9,19.7
		c0.4,0.9,1.1,2.5,2.2,5c-7.4-0.1-12.3-0.1-14.9-0.1c-3.2,0-8.5,0-15.8,0.1c-0.7-2.3-2-6.6-3.9-13c-0.8-2.6-1.4-4.7-2-6.1
		c-1.1-3.2-2.7-7.6-4.8-13.4l-6.9-19c2.4,0.4,4.8,0.7,7.1,0.7c3.3,0,6.2-0.5,8.9-1.5s4.7-2.5,6-4.6c1.4-2.1,2-4.2,2-6.5
		c0-1.9-0.5-3.6-1.5-5.1c-1-1.5-2.6-2.5-4.9-3.3c-2.2-0.7-5.6-1.1-10.2-1.1c-1.6,0-3.2,0-4.9,0.1c-1.7,0.1-3.6,0.1-5.9,0.2
		c-0.6,9.2-1.1,20.4-1.5,33.6c-0.4,13.2-0.7,26.2-0.9,38.9c-7.5-0.1-12.3-0.1-14.6-0.1C967.3,119.5,962.6,119.5,955.8,119.6z"/>
	<path class="st0" d="M1051.5,118.2c-0.6-9.5-1.3-17.2-2-22.9c5,2.2,9.5,3.8,13.4,4.7c3.9,0.9,7.4,1.3,10.3,1.3c3.9,0,7-0.6,9.3-1.7
		c2.3-1.1,3.5-2.8,3.5-5.1c0-0.8-0.1-1.5-0.3-2.2c-0.2-0.7-0.7-1.5-1.3-2.4c-0.6-0.9-1.5-1.8-2.7-2.8l-12.6-11c-3-2.5-5-4.3-6.2-5.4
		c-2.4-2.3-4.2-4.4-5.5-6.4c-1.3-2-2.3-4-2.9-6c-0.6-2-0.9-4.2-0.9-6.5c0-2.7,0.5-5.4,1.4-8c1-2.6,2.4-5.1,4.3-7.4
		c1.9-2.3,4.5-4.3,7.6-5.9c3.2-1.7,6.6-2.8,10.2-3.4s7.4-0.9,11.2-0.9c7.6,0,15.8,0.9,24.7,2.6c0.1,3.1,0.3,5.9,0.5,8.5
		s0.6,7.1,1.3,13.5c-4.1-1.7-7.9-2.8-11.3-3.5c-3.4-0.7-6.3-1-8.8-1c-3.5,0-6.4,0.7-8.7,2c-2.3,1.3-3.5,2.9-3.5,4.8
		c0,0.9,0.2,1.8,0.5,2.6c0.4,0.9,1,1.8,2,3s2.3,2.4,3.9,3.8s4.1,3.4,7.6,6.1l4.8,3.8c1.4,1.2,3,2.6,4.6,4.2c1.7,1.7,3.1,3.3,4.3,4.9
		c1.2,1.6,2.1,3.1,2.8,4.4c0.7,1.3,1.1,2.7,1.4,4.1s0.5,2.8,0.5,4.4c0,4-1,7.9-2.9,11.5c-1.9,3.6-4.7,6.6-8.2,9
		c-3.5,2.4-7.4,4-11.6,4.9c-4.2,0.9-8.7,1.4-13.4,1.4C1071.7,121.4,1062.5,120.3,1051.5,118.2z"/>
</g>
</svg>
