<?xml version="1.0" encoding="utf-8"?>
<!-- Generator: Adobe Illustrator 24.0.1, SVG Export Plug-In . SVG Version: 6.00 Build 0)  -->
<svg version="1.1" id="Layer_1" xmlns="http://www.w3.org/2000/svg" xmlns:xlink="http://www.w3.org/1999/xlink" x="0px" y="0px"
	 viewBox="0 0 32 32" style="enable-background:new 0 0 32 32;" xml:space="preserve">
<style type="text/css">
	.st0{fill:#50623A;}
	.st1{fill:#A7B09A;}
	.st2{fill:#5A8A70;}
	.st3{fill:#294B29;}
</style>
<title></title>
<g id="Square_Menu">
	<path class="st0" d="M12,15H7c-1.7,0-3-1.3-3-3V7c0-1.7,1.3-3,3-3h5c1.7,0,3,1.3,3,3v5C15,13.7,13.7,15,12,15z"/>
	<path class="st1" d="M25,15h-5c-1.7,0-3-1.3-3-3V7c0-1.7,1.3-3,3-3h5c1.7,0,3,1.3,3,3v5C28,13.7,26.7,15,25,15z"/>
	<path class="st2" d="M12,28H7c-1.7,0-3-1.3-3-3v-5c0-1.7,1.3-3,3-3h5c1.7,0,3,1.3,3,3v5C15,26.7,13.7,28,12,28z"/>
	<path class="st3" d="M25,28h-5c-1.7,0-3-1.3-3-3v-5c0-1.7,1.3-3,3-3h5c1.7,0,3,1.3,3,3v5C28,26.7,26.7,28,25,28z"/>
</g>
</svg>
